<svg id="Layer_1" data-name="Layer 1" xmlns="http://www.w3.org/2000/svg" viewBox="0 0 32 32"><defs><style>.cls-1{fill:#206055;}</style></defs><path class="cls-1" d="M31.77,10.37l-4.6-2.55a.5.5,0,0,0-.68.17l-.38.63a5,5,0,0,1-6.7,1.73h0A4.62,4.62,0,0,1,17.62,3.9L18,3.27a.46.46,0,0,0-.18-.65L13.21.06a.51.51,0,0,0-.68.18L.09,21a.46.46,0,0,0,.18.65l4.6,2.55A.5.5,0,0,0,5.55,24L6.18,23a5,5,0,0,1,6.71-1.73h0a4.62,4.62,0,0,1,1.79,6.45L14,28.73a.48.48,0,0,0,.18.65l4.61,2.56a.5.5,0,0,0,.67-.18L32,11A.46.46,0,0,0,31.77,10.37ZM11.09,9.42,9.54,8.56A.38.38,0,0,1,9.4,8a.41.41,0,0,1,.54-.14l1.55.87a.37.37,0,0,1,.15.52A.42.42,0,0,1,11.09,9.42Zm5.24,2.9L13.85,11a.38.38,0,0,1-.15-.53.42.42,0,0,1,.55-.14l2.47,1.38a.37.37,0,0,1,.15.52A.39.39,0,0,1,16.33,12.32Zm5.23,2.91-2.48-1.38a.37.37,0,0,1-.15-.52.41.41,0,0,1,.55-.14L22,14.57a.37.37,0,0,1,.14.52A.41.41,0,0,1,21.56,15.23Zm4.3,2.39-1.55-.86a.37.37,0,0,1-.14-.52.39.39,0,0,1,.54-.14l1.55.86a.37.37,0,0,1,.14.52A.41.41,0,0,1,25.86,17.62Z"/></svg>