<svg xmlns="http://www.w3.org/2000/svg" viewBox="13.47 344.61 1052.94 411.54"><path fill="#206055" d="m22.617 393.628 3.489-.02 3.769.029 3.867-.002c2.7.003 5.4.01 8.1.029 3.46.023 6.92.023 10.38.016 3.301-.004 6.602.008 9.903.02l3.769-.004 3.489.03 3.075.013C75 394 75 394 78 396c.46 1.98.46 1.98.59 4.402.06.886.12 1.77.18 2.683l.168 2.852c1.117 14.349 5.23 27.385 16.101 37.473 11.655 9.45 25.076 13.113 39.961 11.59 13.087-2.502 24.263-9.063 32-20 6.209-10.482 8.275-19.757 8.479-31.729.2-5.801.2-5.801 1.699-7.993 2.536-1.779 4.338-1.666 7.423-1.682l3.48-.038 3.759.008 3.86-.015c2.696-.007 5.39-.007 8.087.003a893.23 893.23 0 0 0 10.353-.038c3.296-.023 6.592-.016 9.887-.012l3.754-.034 3.488.028h3.068c3.605.68 4.514 1.508 6.663 4.502.604 3.348.53 6.665.494 10.059l.015 3.132c.011 3.475-.006 6.95-.023 10.424.002 2.487.006 4.974.011 7.46.009 6.06 0 12.12-.02 18.179a7109.1 7109.1 0 0 0-.019 21.163c.001 12.586-.017 25.172-.046 37.758-.029 12.217-.043 24.433-.041 36.65v4.555c.001 13.902-.01 27.805-.028 41.707-.006 4.919-.008 9.838-.01 14.757 0 6.619-.013 13.237-.034 19.856a2960.56 2960.56 0 0 0-.007 7.3c.001 3.313-.01 6.627-.025 9.94l.01 2.94-.02 2.687-.004 2.318c-.295 2.463-.893 4.04-2.253 6.114-3.05 1.017-5.133 1.133-8.326 1.145l-3.297.02-3.56.003-3.658.01c-2.555.005-5.11.007-7.664.007-3.913.002-7.826.02-11.74.04-2.479.003-4.959.005-7.439.005l-3.554.022-3.307-.01-2.906.005c-2.68-.26-4.296-.795-6.549-2.247-1.19-2.38-1.14-3.896-1.176-6.55-.388-17.138-2.339-31.65-14.574-44.7-10.461-9.845-22.99-13.994-37.25-13.75-12.73 1.441-24.295 6.41-33 16-9.55 12.368-11.561 24.924-12.133 40.168l-.18 3.371-.113 3.038C78 654 78 654 76.31 655.134c-2.748 1.03-4.907 1.127-7.841 1.14l-3.358.03-3.611-.003-3.72.013c-2.596.006-5.192.006-7.788.002-3.977-.003-7.953.02-11.93.045-2.52.003-5.041.003-7.562.002l-3.611.028-3.358-.019-2.95.002c-3.088-.448-4.316-1.256-6.581-3.374-.5-2.01-.5-2.01-.5-4.359l-.03-2.715.029-2.985-.017-3.17c-.014-3.521.001-7.042.016-10.564-.003-2.518-.009-5.035-.016-7.553-.013-6.139-.006-12.278.009-18.416.016-7.145.013-14.29.01-21.436-.006-12.746.008-25.492.032-38.239.024-12.375.031-24.75.021-37.126a21052.112 21052.112 0 0 1 .006-44.71l.002-2.14c.005-4.984.003-9.968-.001-14.951-.006-6.705.005-13.409.027-20.113a1658.5 1658.5 0 0 0 0-7.398c-.005-3.355.007-6.71.024-10.066l-.018-2.985.026-2.715.003-2.348c.952-5.076 4.447-5.386 8.994-5.383M29 484c.344 2.473.344 2.473 1 5 3.253 1.626 6.805 1.185 10.375 1.187l2.328.038c5.425.028 5.425.028 10.297-2.225-.344-2.473-.344-2.473-1-5-3.404-1.702-7.187-1.185-10.937-1.188l-2.499-.037-2.404-.005-2.199-.013c-2.283.134-2.283.134-4.961 2.243m50 0c.344 2.473.344 2.473 1 5 4.548 2.274 10.881 1.185 15.875 1.187l3.918.038 3.762.005 3.452.013c2.897-.235 4.547-.734 6.993-2.243l-1-5c-5.435-1.812-11.313-1.185-17-1.188l-3.93-.037-3.757-.005-3.45-.013c-3.063.028-3.063.028-5.863 2.243m60 1c1.309 3.122 1.309 3.122 4 5 2.07.097 4.143.13 6.215.133l3.767.004 3.956-.012 3.943.012 3.771-.004 3.469-.004c2.95 0 2.95 0 5.879-1.129.833-1.917.833-1.917 1-4l-1-2c-5.422-1.807-11.264-1.227-16.937-1.25-1.933-.03-1.933-.03-3.905-.063l-3.748-.015-3.433-.028c-3.253.389-4.603 1.16-6.977 3.356m62-2c-.833 1.917-.833 1.917-1 4l1 2c3.85 1.283 7.49 1.145 11.5 1.125l2.34.012c3.305-.006 6.004-.085 9.16-1.137.833-1.917.833-1.917 1-4l-1-2c-3.85-1.283-7.49-1.145-11.5-1.125l-2.34-.012c-3.305.006-6.004.085-9.16 1.137m638.422-89.494 2.666-.026 2.903.034 3.076-.011c3.366-.008 6.731.014 10.097.036l7.05.003c4.939.003 9.876.02 14.814.046 6.283.034 12.565.042 18.848.04 4.863.001 9.726.012 14.588.026 2.313.007 4.626.01 6.94.012 16.838.023 33.593.416 50.033 4.459l2.626.64c18.618 4.798 36.425 13.593 50.937 26.235l2.707 2.27c23.048 19.953 37.152 50.773 39.467 81.009.228 4.608.255 9.21.217 13.823-.016 2.332 0 4.662.02 6.994.02 13.85-1.416 27.906-6.099 41.029l-.768 2.217c-6.439 17.934-16.374 32.99-29.544 46.658l-1.8 1.992c-24.186 26.046-63.372 33.816-97.197 35.124-6.88.17-13.761.165-20.644.15l-6.46.005c-4.453.003-8.906 0-13.36-.01-5.707-.012-11.414-.005-17.121.007-4.42.007-8.84.005-13.26 0-2.106-.002-4.213 0-6.32.005-2.923.005-5.846-.003-8.769-.014l-2.619.012-2.41-.017-2.084-.002c-2.378-.306-3.945-.95-5.956-2.252-.927-2.78-1.128-4.44-1.134-7.31l-.014-2.68v-2.949l-.01-3.13c-.011-3.477-.015-6.955-.019-10.433l-.02-7.46c-.02-7.472-.03-14.944-.039-22.416-.004-3.518-.01-7.035-.015-10.553a41981.187 41981.187 0 0 1-.044-44.169l-.002-2.284c-.008-12.222-.033-24.444-.066-36.667-.033-12.543-.05-25.086-.054-37.63a6472.55 6472.55 0 0 0-.036-21.133c-.024-6.623-.028-13.246-.018-19.869 0-2.435-.006-4.87-.02-7.305-.017-3.315-.01-6.63.003-9.946l-.033-2.942c.062-6.445.062-6.445 2.275-9.722 2.487-1.553 3.76-1.9 6.668-1.896m57.902 56.65c-1.873 2.609-1.704 4.494-1.712 7.69l-.03 3.696.014 4.062-.02 4.272c-.019 3.87-.018 7.74-.012 11.61.003 3.227-.003 6.456-.009 9.684-.014 7.614-.012 15.228-.001 22.842.011 7.861-.003 15.722-.03 23.583a4874.48 4874.48 0 0 0-.022 20.235c.003 4.03 0 8.06-.017 12.091-.015 3.789-.011 7.577.008 11.366.003 1.392 0 2.784-.01 4.176-.013 1.897 0 3.795.016 5.692v3.22c.267 2.736.267 2.736 2.342 4.467 3.006 1.612 5.368 1.53 8.768 1.521l3.954.003c1.396-.016 2.791-.034 4.187-.053l2.129-.017c23.84-.193 46.713-3.03 64.43-20.51 16.104-16.666 20.2-37.071 19.902-59.544-.603-20.35-7.194-39.358-22.246-53.625-18.162-14.948-38.944-17.797-61.654-17.857-2.269-.01-4.537-.041-6.805-.072-1.449-.007-2.897-.012-4.346-.016l-3.949-.028c-3.105.088-3.105.088-4.887 1.513M362.81 393.725l2.086-.015c2.274-.014 4.548-.013 6.823-.01l4.74-.014c3.313-.007 6.625-.007 9.937-.002 4.247.006 8.494-.01 12.741-.034 3.264-.015 6.527-.016 9.79-.013 1.566 0 3.133-.005 4.699-.015a600.26 600.26 0 0 1 6.563.006l3.775-.002c3.036.374 3.036.374 4.852 1.63 1.337 1.97 2.144 3.782 2.935 6.03l.95 2.654 1.01 2.908 1.091 3.072c.785 2.211 1.566 4.424 2.343 6.639 1.679 4.782 3.377 9.558 5.073 14.335.895 2.52 1.788 5.04 2.681 7.56 4.408 12.445 8.898 24.86 13.401 37.27 1.332 3.67 2.662 7.339 3.992 11.008a39337.577 39337.577 0 0 1 18.535 51.197 116034.556 116034.556 0 0 1 16.832 46.572c3.236 8.967 6.49 17.926 9.807 26.863 1.51 4.07 3.012 8.142 4.514 12.214.715 1.929 1.433 3.856 2.156 5.781.997 2.658 1.98 5.32 2.962 7.985l.897 2.354c1.669 4.582 2.397 8.35 2.005 13.302l-1 2c-3.146 1.049-5.39 1.14-8.693 1.161l-3.54.03-3.826.012-3.926.017c-2.743.01-5.486.017-8.23.02-3.51.006-7.022.03-10.534.058-3.353.023-6.706.025-10.06.03l-3.82.038-3.548-.01-3.122.011c-3.152-.428-4.457-1.137-6.701-3.367-1.006-1.91-1.006-1.91-1.723-4.088l-.84-2.477-.855-2.662-.917-2.737c-.964-2.883-1.909-5.772-2.853-8.661-.958-2.895-1.92-5.79-2.884-8.682-.599-1.8-1.193-3.602-1.783-5.406l-.81-2.457-.71-2.173c-.5-1.669-.5-1.669-1.625-2.657a242.593 242.593 0 0 0-8.834-.114h-2.809c-3.078 0-6.157.009-9.236.016l-6.385.005c-5.615.003-11.229.013-16.843.024-5.724.01-11.448.015-17.172.02-11.24.01-22.48.028-33.721.049l-.543 1.619c-1.864 5.554-3.749 11.1-5.646 16.643a1272.55 1272.55 0 0 0-2.1 6.216c-1 2.978-2.017 5.95-3.04 8.92l-.93 2.82-.91 2.608-.78 2.301c-1.335 2.38-2.52 2.941-5.051 3.873-2.656.26-2.656.26-5.715.275l-3.479.029-3.744-.003-3.855.013c-2.69.006-5.38.007-8.07.002-3.443-.006-6.886.01-10.329.034-3.29.018-6.58.015-9.87.013l-3.744.028-3.48-.019-3.058.002c-3.1-.437-4.498-1.114-6.656-3.374-.025-7.591 2.595-14.241 5.207-21.29l1.31-3.61a2326.46 2326.46 0 0 1 3.553-9.703c1.255-3.418 2.499-6.84 3.743-10.262a9028.648 9028.648 0 0 1 6.176-16.908c2.774-7.573 5.534-15.15 8.288-22.73l1.26-3.467 2.48-6.828c1.24-3.41 2.481-6.82 3.723-10.229a11850.68 11850.68 0 0 0 16.197-44.786 29571.225 29571.225 0 0 1 21.44-59.452c2.46-6.809 4.929-13.614 7.413-20.414.826-2.267 1.648-4.536 2.467-6.806 1.216-3.37 2.445-6.736 3.677-10.1l1.108-3.1 1.046-2.832.903-2.487c2.38-4.708 6.13-4.253 10.82-4.27M389 476c-4.547 4.765-6.85 11.964-9.25 17.984l-1.153 2.84A2557.299 2557.299 0 0 0 375 505.75c-1.195 2.956-2.392 5.91-3.59 8.865-.767 1.897-1.53 3.795-2.291 5.695-1.56 3.89-3.125 7.765-4.865 11.579l-1.442 3.19-1.23 2.59c-.761 3.049.178 4.515 1.418 7.331 7.284.023 14.568.04 21.853.052 3.382.005 6.764.012 10.146.023 3.884.013 7.769.018 11.653.023l3.697.015h3.397l3.008.007c2.216.132 2.216.132 3.246-1.12-.227-8.096-3.014-14.437-6.313-21.75a5002.89 5002.89 0 0 1-3.261-7.414l-.848-1.922a583.25 583.25 0 0 1-5.973-14.125l-.826-2.02a2273.55 2273.55 0 0 1-3.184-7.822c-.728-1.8-1.462-3.596-2.197-5.392-.415-1.027-.831-2.053-1.26-3.11-1.02-2.555-1.02-2.555-3.138-4.445h-4m121.781-82.26c.801-.005 1.602-.008 2.427-.012 2.693-.01 5.385-.007 8.077-.003 1.927-.004 3.853-.01 5.78-.015 5.24-.014 10.479-.014 15.718-.012 4.37.001 8.739-.003 13.108-.008 10.303-.011 20.607-.012 30.91-.006 10.643.006 21.285-.006 31.927-.027 9.127-.018 18.254-.024 27.381-.02 5.456.001 10.911-.001 16.367-.015 5.128-.013 10.257-.011 15.385.002 1.885.002 3.77 0 5.656-.009 2.568-.01 5.134-.002 7.702.01l2.278-.022c5.018.053 5.018.053 7.466 1.79 1.38 2.139 1.418 3.583 1.425 6.123l.029 2.76-.019 2.974.01 3.06c.001 2.135-.004 4.27-.017 6.405-.016 3.272 0 6.544.02 9.816-.003 2.073-.007 4.146-.013 6.219l.019 2.974-.029 2.76-.007 2.43c-.497 2.721-1.166 3.432-3.381 5.086-2.828.399-2.828.399-6.307.432l-3.943.06-4.262.02-4.359.054c-3.822.048-7.644.077-11.467.104-3.9.03-7.802.076-11.703.121-7.653.086-15.306.153-22.959.209l-.004 3.209c-.037 25.738-.096 51.475-.18 77.213-.04 12.446-.072 24.893-.087 37.339-.013 10.845-.04 21.69-.084 32.536-.022 5.745-.038 11.49-.037 17.235 0 5.404-.017 10.807-.05 16.21a838.37 838.37 0 0 0-.004 5.961 708.3 708.3 0 0 1-.035 8.116l.023 2.402c-.083 5.292-.083 5.292-2.413 7.767-2.693 1.28-4.679 1.393-7.66 1.4l-3.358.029-3.611-.019-3.72.01c-2.596.001-5.192-.004-7.788-.017-3.977-.016-7.953 0-11.93.02-2.52-.003-5.041-.007-7.562-.013l-3.611.019-3.358-.029-2.95-.007c-3.209-.474-4.345-1.015-6.581-3.381-.4-2.81-.538-5.234-.506-8.047l-.018-2.514c-.016-2.789-.003-5.577.01-8.367-.006-1.995-.013-3.99-.022-5.986a2494.41 2494.41 0 0 1-.011-12.906c.01-6.798-.007-13.596-.028-20.393-.03-10.749-.042-21.497-.045-32.246a26484.43 26484.43 0 0 0-.085-57.767c-.017-6.762-.022-13.524-.019-20.287 0-4.2-.007-8.402-.017-12.603-.002-1.953-.001-3.906.003-5.86.006-2.659 0-5.318-.01-7.977l.014-2.36c-.027-3.774-.119-5.466-2.266-8.687-2.724-.465-2.724-.465-5.963-.4l-3.792-.041h-4.116a2936.25 2936.25 0 0 1-4.207-.04c-3.697-.037-7.393-.057-11.089-.072a3212.02 3212.02 0 0 1-17.739-.122c-2.067-.016-4.133-.02-6.2-.023l-3.802-.03-3.353-.014C503 446 503 446 500 444c-.381-2.05-.381-2.05-.388-4.602l-.029-2.892.019-3.131-.01-3.206c-.001-2.239.004-4.478.017-6.718.016-3.437 0-6.873-.02-10.31.003-2.172.007-4.344.013-6.516l-.019-3.131.029-2.892.007-2.553L500 396c3.699-2.466 6.503-2.282 10.781-2.26m230.433 39.099 2.489-.03 2.664-.012 2.765-.017c1.928-.01 3.856-.016 5.785-.02 2.94-.01 5.88-.041 8.821-.073 1.877-.006 3.753-.011 5.63-.015l2.651-.038c5.084.019 8.584.53 12.981 3.366 4.65 5.152 5.147 8.396 5.134 15.155l.007 2.585c.006 2.875.005 5.75.004 8.625l.01 6.164c.01 5.592.012 11.185.012 16.778.001 4.662.005 9.325.008 13.987.009 10.996.011 21.991.01 32.987 0 11.358.01 22.716.026 34.075.013 9.738.018 19.477.018 29.215 0 5.822.002 11.645.013 17.467.01 5.474.01 10.948.003 16.421-.002 2.013 0 4.026.007 6.039.008 2.74.003 5.48-.005 8.22l.016 2.434c-.024 3.82-.092 5.591-2.263 8.848-3.05 1.017-5.133 1.133-8.326 1.145l-3.297.02-3.56.003-3.658.01c-2.555.005-5.11.007-7.664.007-3.913.002-7.826.02-11.74.04-2.479.003-4.959.005-7.439.005l-3.554.022-3.307-.01-2.906.005c-2.68-.26-4.296-.795-6.549-2.247-1.589-3.178-1.144-6.607-1.14-10.097l-.01-2.566c-.008-2.854-.01-5.708-.011-8.563l-.015-6.119c-.013-5.554-.02-11.108-.024-16.661l-.012-10.404c-.013-10.844-.023-21.688-.027-32.533-.004-12.528-.022-25.057-.05-37.585-.022-9.677-.033-19.353-.034-29.03a5974.98 5974.98 0 0 0-.025-17.348c-.016-5.44-.018-10.88-.01-16.32.001-1.997-.003-3.995-.013-5.992-.013-2.726-.007-5.451.004-8.177l-.025-2.396c.043-4.822.833-8.115 3.392-12.209 4.222-4.005 7.514-5.107 13.214-5.161m37.411-82.214C788.314 357.587 794.05 366.207 796 378c.927 11.603-1.827 21.738-9 31-8.476 8.624-17.618 12.328-29.562 12.5-11.205-.113-19.725-4.042-28-11.625-7.313-7.604-10.353-17.244-10.47-27.664.63-11.156 5.019-20.365 12.997-28.121 13.259-11.293 31.872-12.55 46.66-3.465"/><path fill="#154940" d="M689 708c3 1.5 3 1.5 5 3l1-2h9c.05 4.572.086 9.143.11 13.715.01 1.552.023 3.105.04 4.658.025 2.241.037 4.483.045 6.725l.032 2.078c0 5.262-.41 10.578-3.813 14.785l-1.789 1.414-1.773 1.46c-4.028 2.533-8.19 2.481-12.852 2.165-4.555-1.544-8.095-3.089-11-7-.75-3.25-.75-3.25-1-6h8l1 3c3.58 1.193 6.243 1.335 10 1 2.079-1.577 2.079-1.577 3-4 .251-2.668.251-2.668 0-5l-2 1.5c-3.745 1.873-6.927 2.212-11 1.5-4.818-2.409-7.524-5.23-10-10-1.555-6.323-.919-11.152 2-17 4.62-5.543 8.872-6.832 16-6m-7.312 9.563c-2.213 3.196-2.55 5.575-2.688 9.437 1.102 3.398 1.921 3.947 5 6 3.554.454 5.314.464 8.313-1.562 2.239-3.235 2.618-5.518 2.687-9.438-1.346-2.948-2.086-4.543-5-6-3.52-.383-5.341-.445-8.312 1.563M148 708c3.69 1.677 6.337 3.957 9 7 2.083 6.249 2.106 13.576-.625 19.563-3.78 3.879-6.885 6.634-12.437 6.875C140 741 140 741 135 738l-1 17h-9v-46h9l1 2 2-1.5c3.827-1.913 6.796-2.132 11-1.5m-11.312 9.563c-2.24 3.234-2.62 5.517-2.688 9.437 1.346 2.948 2.086 4.543 5 6 3.52.383 5.341.445 8.313-1.562 2.239-3.235 2.618-5.518 2.687-9.438-1.346-2.948-2.086-4.543-5-6-3.52-.383-5.341-.445-8.312 1.563M724 701l10.625-.187 3.315-.083c7.08-.06 11.382.896 16.81 5.707 4.222 4.808 5.125 9.279 5.25 15.563-.412 6.106-3.06 9.835-7.05 14.336-3.74 3.192-7.427 3.916-12.25 3.86l-2.67-.016-3.342-.055L724 740zm9 7v25c9.142.211 9.142.211 15.578-4.34 2.615-3.053 2.525-6.77 2.422-10.66-.795-3.705-2.27-6.314-5.062-8.937-3.985-1.63-3.985-1.63-12.938-1.063m139-10h9l1 13 5-3c3.9-.753 7.144-.389 10.75 1.25 3.426 2.665 5.856 4.57 7.25 8.75.476 5.841.835 11.169-1.625 16.563-3.78 3.879-6.885 6.634-12.437 6.875-3.896-.433-5.843-1.117-8.938-3.438l-1 2h-9zm11.688 19.563c-2.24 3.234-2.62 5.517-2.688 9.437 1.346 2.948 2.086 4.543 5 6 3.52.383 5.341.445 8.313-1.562 2.239-3.235 2.618-5.518 2.687-9.438-1.346-2.948-2.086-4.543-5-6-3.52-.383-5.341-.445-8.312 1.563M1031 698h9v42h-9l-1-2-2 1.5c-3.745 1.873-6.927 2.212-11 1.5-4.818-2.409-7.524-5.23-10-10-1.555-6.323-.919-11.152 2-17 2.633-3.16 4.106-4.702 8-6 6.183-.399 7.342-.395 13 3zm-13.312 19.563c-2.213 3.196-2.55 5.575-2.688 9.437 1.102 3.398 1.921 3.947 5 6 3.554.454 5.314.464 8.313-1.562 2.239-3.235 2.618-5.518 2.687-9.438-1.346-2.948-2.086-4.543-5-6-3.52-.383-5.341-.445-8.312 1.563M415 698h9v42h-9l-1-2-2 1.5c-3.745 1.873-6.927 2.212-11 1.5-4.818-2.409-7.524-5.23-10-10-1.555-6.323-.919-11.152 2-17 2.633-3.16 4.106-4.702 8-6 6.183-.399 7.342-.395 13 3zm-13.312 19.563c-2.213 3.196-2.55 5.575-2.688 9.437 1.102 3.398 1.921 3.947 5 6 3.554.454 5.314.464 8.313-1.562 2.239-3.235 2.618-5.518 2.687-9.438-1.346-2.948-2.086-4.543-5-6-3.52-.383-5.341-.445-8.312 1.563M187 698h9v42h-9l-1-2-2 1.5c-3.745 1.873-6.927 2.212-11 1.5-4.818-2.409-7.524-5.23-10-10-1.555-6.323-.919-11.152 2-17 2.633-3.16 4.106-4.702 8-6 6.183-.399 7.342-.395 13 3zm-13.312 19.563c-2.213 3.196-2.55 5.575-2.688 9.437 1.102 3.398 1.921 3.947 5 6 3.554.454 5.314.464 8.313-1.562 2.239-3.235 2.618-5.518 2.687-9.438-1.346-2.948-2.086-4.543-5-6-3.52-.383-5.341-.445-8.312 1.563M33 701h9v16h16v-16h9v39h-9v-16H42v16h-9zm931 7c3 1.5 3 1.5 5 3l1-2h9v31h-9l-1-2-2 1.5c-3.745 1.873-6.927 2.212-11 1.5-4.818-2.409-7.524-5.23-10-10-1.555-6.323-.919-11.152 2-17 4.62-5.543 8.872-6.832 16-6m-7.312 9.563c-2.213 3.196-2.55 5.575-2.688 9.437 1.102 3.398 1.921 3.947 5 6 3.554.454 5.314.464 8.313-1.562 2.239-3.235 2.618-5.518 2.687-9.438-1.346-2.948-2.086-4.543-5-6-3.52-.383-5.341-.445-8.312 1.563M782 708c3 1.5 3 1.5 5 3l1-2h9v31h-9l-1-2-2 1.5c-3.745 1.873-6.927 2.212-11 1.5-4.818-2.409-7.524-5.23-10-10-1.555-6.323-.919-11.152 2-17 4.62-5.543 8.872-6.832 16-6m-7.312 9.563c-2.213 3.196-2.55 5.575-2.688 9.437 1.102 3.398 1.921 3.947 5 6 3.554.454 5.314.464 8.313-1.562 2.239-3.235 2.618-5.518 2.687-9.438-1.346-2.948-2.086-4.543-5-6-3.52-.383-5.341-.445-8.312 1.563M332 708c3 1.5 3 1.5 5 3l1-2h9v31h-9l-1-2-2 1.5c-3.745 1.873-6.927 2.212-11 1.5-4.818-2.409-7.524-5.23-10-10-1.555-6.323-.919-11.152 2-17 4.62-5.543 8.872-6.832 16-6m-7.312 9.563c-2.213 3.196-2.55 5.575-2.688 9.437 1.102 3.398 1.921 3.947 5 6 3.554.454 5.314.464 8.313-1.562 2.239-3.235 2.618-5.518 2.687-9.438-1.346-2.948-2.086-4.543-5-6-3.52-.383-5.341-.445-8.312 1.563M834 698h9l1 12 5-2c5.016-.448 7.991-.118 12 3 3.384 3.867 4.127 7.046 4.098 12.105l-.01 2.979-.025 3.104-.014 3.138c-.012 2.558-.028 5.116-.049 7.674h-9l-.06-1.896a1595.71 1595.71 0 0 0-.315-8.479c-.03-.985-.062-1.97-.094-2.984l-.117-2.852-.095-2.634c-.131-2.365-.131-2.365-2.319-4.155-3.5-.417-3.5-.417-7 0-2.087 3.131-2.277 4.07-2.414 7.668l-.117 2.705-.094 2.814-.117 2.85c-.094 2.32-.177 4.642-.258 6.963h-9zm-307 0h9l1 21 3.25-5c2.577-3.291 3.813-4.806 7.953-5.664 2.989.035 5.843.22 8.797.664a1462.101 1462.101 0 0 1-13 15 829.943 829.943 0 0 0 11.68 13.398C557 739 557 739 557 740c-4.158.624-7.865.857-12 0-3.37-2.91-5.697-6.207-8-10l-1 10h-9zm-259 0h9l1 21 3.25-5c2.577-3.291 3.813-4.806 7.953-5.664 2.989.035 5.843.22 8.797.664a1462.101 1462.101 0 0 1-13 15 829.943 829.943 0 0 0 11.68 13.398C298 739 298 739 298 740c-4.158.624-7.865.857-12 0-3.37-2.91-5.697-6.207-8-10l-1 10h-9zm314.313 11.188c3.932 2.652 6.186 5.309 7.687 9.812v8l-22 1 1 3c2.74 1.525 2.74 1.525 6 2 1.67-.993 3.337-1.994 5-3 3.017-.27 5.98-.178 9 0-.828 4.278-2.733 6.113-6 9-4.272 2.545-8.144 2.54-13 2-4.7-1.685-7.44-3.703-10-8-2.137-6.01-2.493-11.047-.125-17.02 4.723-8.314 13.968-9.829 22.438-6.793M568 718v3h13c-1.649-4.124-1.649-4.124-5-6-3.615 0-5.112.892-8 3m-343.687-8.812c3.932 2.652 6.186 5.309 7.687 9.812v8l-22 1 1 3c2.74 1.525 2.74 1.525 6 2 1.67-.993 3.337-1.994 5-3 3.017-.27 5.98-.178 9 0-.828 4.278-2.733 6.113-6 9-4.272 2.545-8.144 2.54-13 2-4.7-1.685-7.44-3.703-10-8-2.137-6.01-2.493-11.047-.125-17.02 4.723-8.314 13.968-9.829 22.438-6.793M210 718v3h13c-1.649-4.124-1.649-4.124-5-6-3.615 0-5.112.892-8 3m-113.687-8.812c3.932 2.652 6.186 5.309 7.687 9.812v8l-22 1 1 3c2.74 1.525 2.74 1.525 6 2 1.67-.993 3.337-1.994 5-3 3.017-.27 5.98-.178 9 0-.828 4.278-2.733 6.113-6 9-4.272 2.545-8.144 2.54-13 2-4.7-1.685-7.44-3.703-10-8-2.137-6.01-2.493-11.047-.125-17.02 4.723-8.314 13.968-9.829 22.438-6.793M82 718v3h13c-1.649-4.124-1.649-4.124-5-6-3.615 0-5.112.892-8 3m851.25-8.437c3.992 2.263 6.446 5.002 7.75 9.437.746 5.347.711 9.55-1.687 14.438-4.319 4.784-7.509 7.375-14.063 7.812-4.302-.071-7.46-1.137-11.25-3.25-5.133-5.539-5.36-9.397-5.27-16.793.355-4.222 1.228-6.241 4.27-9.207 6.536-4.584 12.872-5.594 20.25-2.437M918 719c-1.087 4.495-1.574 6.715.313 10.938 2.194 2.681 3.11 3 6.562 3.375 3.138-.088 3.138-.088 5.5-1.75 2.4-3.785 2.41-7.202 1.625-11.563-1.44-2.691-1.44-2.691-4-4-4.285-.625-7.139-.391-10 3m-262-11c4.974 2.487 7.058 4.836 9 10 .353 3.8.283 7.562.188 11.375l-.042 3.098A699.35 699.35 0 0 1 665 740h-9l-.06-1.896a1595.71 1595.71 0 0 0-.315-8.479c-.03-.985-.062-1.97-.094-2.984l-.117-2.852-.095-2.634c-.131-2.365-.131-2.365-2.319-4.155-3.5-.417-3.5-.417-7 0-2.087 3.131-2.277 4.07-2.414 7.668l-.117 2.705-.094 2.814-.117 2.85c-.094 2.32-.177 4.642-.258 6.963h-9v-31h12c3.62-1.206 6.192-1.323 10-1m-280 0c4.974 2.487 7.058 4.836 9 10 .353 3.8.283 7.562.188 11.375l-.042 3.098A699.35 699.35 0 0 1 385 740h-9l-.06-1.896a1595.71 1595.71 0 0 0-.315-8.479c-.03-.985-.062-1.97-.094-2.984l-.117-2.852-.095-2.634c-.131-2.365-.131-2.365-2.319-4.155-3.5-.417-3.5-.417-7 0-2.087 3.131-2.277 4.07-2.414 7.668l-.117 2.705-.094 2.814-.117 2.85c-.094 2.32-.177 4.642-.258 6.963h-9v-31h12c3.62-1.206 6.192-1.323 10-1m446.313 1.25c2.676 1.743 4.164 2.958 5.687 5.75v4h-8l-1-3h-8l1 3c2.957 1.177 5.957 1.978 9.02 2.84 3.252 1.266 4.845 2.418 6.98 5.16.455 3.184.706 4.985 0 8-2.535 3.22-4.113 4.704-8 6-6.265.531-10.784-.339-16-4-2-3-2-3-2-7a195.61 195.61 0 0 1 4.375-.187l2.46-.106L811 730l2 3c2.584.25 2.584.25 5 0l1-3-2.484-.734-3.266-1.016-3.234-.984c-3.214-1.35-4.88-2.53-7.016-5.266-.455-3.184-.706-4.985 0-8 5.144-6.534 11.722-7.614 19.313-4.75m-566 0c2.676 1.743 4.164 2.958 5.687 5.75v4h-8l-1-3h-8l1 3c2.957 1.177 5.957 1.978 9.02 2.84 3.252 1.266 4.845 2.418 6.98 5.16.455 3.184.706 4.985 0 8-2.535 3.22-4.113 4.704-8 6-6.265.531-10.784-.339-16-4-2-3-2-3-2-7a195.61 195.61 0 0 1 4.375-.187l2.46-.106L245 730l2 3c2.584.25 2.584.25 5 0l1-3-2.484-.734-3.266-1.016-3.234-.984c-3.214-1.35-4.88-2.53-7.016-5.266-.455-3.184-.706-4.985 0-8 5.144-6.534 11.722-7.614 19.313-4.75m257.727-.531c3.895 2.055 6.205 4.256 7.96 8.281v3h-9l-1-3c-2.855-.234-5.203-.424-8 0-2.296 1.908-2.296 1.908-3 5-.022 2.869.392 5.146 1 8 1.761 2.183 1.761 2.183 3.945 2.195L512 732l1-3h9c-.3 3.5-.957 4.949-3.25 7.688-4.444 3.736-7.894 4.739-13.762 4.562-4.287-.54-7.115-2.45-10.238-5.312-2.877-4.83-4.183-9.784-3.41-15.41 1.57-5.564 3.883-8.343 8.66-11.528 4.614-1.538 9.383-1.922 14.04-.281M442 701h30v7h-11v32h-8v-32h-11zm156 0h8v8h7v7h-7l1 17h6v7c-1.56.136-3.124.233-4.687.313l-2.637.175c-4.027-.735-5.326-2.164-7.676-5.488-.59-3.298-.474-6.476-.312-9.812l.068-2.678c.059-2.17.148-4.34.244-6.51h-4v-7h4zm-489-3h9v42h-9zm895 10v9l-6.152 1.367c-2.055.463-2.055.463-2.848 2.633a76.364 76.364 0 0 0-.316 4.352l-.127 2.578-.12 2.695-.13 2.719c-.107 2.218-.207 4.437-.307 6.656h-9v-31h9l1 2 2.25-1.5c2.75-1.5 2.75-1.5 6.75-1.5m-386 1h9v31h-9zm-141 0h9v31h-9zm146-13.25c3 .25 3 .25 5 2.25.363 2.834.357 4.405-1.125 6.875-1.875 1.125-1.875 1.125-5 .875C619 705 619 705 618 704c-.187-2.937-.187-2.937 0-6 2-2 2-2 5-2.25m-141 0c3 .25 3 .25 5 2.25.363 2.834.357 4.405-1.125 6.875-1.875 1.125-1.875 1.125-5 .875C478 705 478 705 477 704c-.187-2.937-.187-2.937 0-6 2-2 2-2 5-2.25"/></svg>